<svg width="334" height="117" viewBox="0 0 334 117" fill="none" xmlns="http://www.w3.org/2000/svg">
<path d="M182.267 29.7137L181.981 29.8927C183.326 30.0071 182.747 31.2455 179.294 35.5944C172.702 43.777 169.704 46.3686 166.361 46.6268C165.921 46.6233 165.094 46.3836 164.475 46.0938C163.469 45.5679 163.29 45.2816 162.713 42.8945C162.237 40.9225 162.198 39.3943 162.448 37.2469C163.002 32.7194 163.002 32.7194 161.553 35.8155C159.392 40.5114 156.794 44.7636 155.28 46.2276C152.672 48.6152 149.823 48.6443 149.246 46.2572C148.62 43.6625 150.501 38.2652 152.745 36.1854C154.259 34.7214 155.633 34.4993 157.491 35.3687L158.987 36.1058L160.439 32.5695C161.838 29.2659 163.716 24.3088 167.397 14.0831C168.775 10.2355 169.433 8.86822 170.16 8.69274C170.367 8.6426 170.6 8.69625 170.832 8.7499C171.788 9.06828 171.785 9.5085 170.858 12.039C167.073 22.2897 163.894 40.9617 165.53 43.6421C166.654 45.5674 170.143 43.1868 175.164 37.1412C180.445 30.8128 181.594 29.6566 182.267 29.7137ZM155.992 41.4425L156.121 41.5212C157.906 38.4537 157.881 38.3499 157.162 37.645C156.442 36.94 155.952 36.729 155.433 36.8543C155.225 36.9044 154.939 37.0834 154.653 37.2624C153.089 38.5189 150.914 44.9757 151.709 45.992C152.195 46.6433 153.945 44.7927 155.992 41.4425Z" fill="white"></path>
<path d="M149.757 39.875L149.885 39.9537C152.92 36.1453 153.535 36.8753 153.582 37.5231C153.657 37.8344 152.92 39.3305 150.984 41.7752C144.758 49.6497 140.017 53.2115 135.275 53.588C131.596 53.8176 129.276 52.4007 128.961 49.7309C128.499 45.9982 132.009 40.9764 135.226 40.1993C135.641 40.099 136.082 40.1025 136.547 40.2098C138.512 40.6139 138.859 42.5071 137.21 44.7728C136.319 46.0864 135.123 46.5948 133.903 46.9994C131.852 47.6046 131.57 47.3434 131.409 48.0413C131.301 48.5065 131.398 49.3619 131.652 49.9595C132.157 51.595 133.707 52.0994 136.302 51.4727C139.934 50.5953 144.028 47.0802 149.757 39.875ZM133.176 43.9897L133.205 43.6533C132.629 44.4514 132.6 44.7879 132.962 44.9202C133.659 45.0812 133.659 45.0812 134.858 44.1326C135.771 43.363 136.325 42.0208 135.835 41.8097C135.835 41.8097 135.731 41.8348 135.627 41.8598C135.108 41.9852 134.013 42.9087 133.176 43.9897Z" fill="white"></path>
<path d="M134.294 41.7406L134.942 41.694C135.121 41.9802 134.18 43.0863 132.953 44.3713C131.464 45.9391 130.319 46.6551 128.991 47.525C126.622 49.0858 123.401 50.3031 121.64 50.2891C119.672 50.3252 119.568 50.3502 119.067 51.4598C118.355 53.0597 115.972 56.3814 114.956 57.176C113.471 58.3036 111.681 58.626 110.625 57.8925C109.595 57.2628 109.058 56.4039 108.299 54.1707L107.869 52.8466L106.345 55.6312C104.82 58.4159 103.278 60.2164 102.033 60.5172C101.618 60.6175 100.92 60.4565 100.429 60.2454C99.5775 59.902 99.3985 59.6157 99.205 57.905C98.9362 55.8829 99.2185 52.9588 100.02 49.9094C100.42 48.3847 100.657 47.9982 101.383 47.8227C102.732 47.4968 102.908 48.2233 102.214 50.8074C101.495 53.2878 101.041 58.2304 101.428 58.4665C101.814 58.7027 102.784 57.2602 104.362 54.2429C107.017 49.3178 107.539 48.7523 108.906 49.4106C109.397 49.6217 109.651 50.2193 110.023 52.2164C110.417 54.7574 111.488 56.9153 112.214 56.7398C112.837 56.5894 115.585 52.9599 116.297 51.36C116.852 50.0178 116.988 49.2161 116.737 48.1783C116.261 46.2063 116.897 44.295 118.221 43.8654C119.857 43.3605 120.548 44.4019 120.244 46.7819C120.158 47.7912 120.151 48.6716 120.28 48.7503C120.409 48.8291 121.472 48.6822 122.614 48.4064C125.208 47.7797 127.86 46.4801 130.655 43.4984C132.587 41.4939 133.861 40.8566 134.294 41.7406Z" fill="white"></path>
<path d="M97.4577 52.5058L97.5866 52.5846C100.621 48.7761 101.237 49.5061 101.283 50.1539C101.358 50.4653 100.621 51.9614 98.6856 54.4061C92.4595 62.2806 87.718 65.8423 82.976 66.2188C79.2969 66.4485 76.9776 65.0316 76.6622 62.3617C76.2 58.629 79.7101 53.6073 82.9274 52.8302C83.3426 52.7299 83.7828 52.7334 84.2481 52.8407C86.2129 53.2448 86.5604 55.138 84.9108 57.4037C84.0199 58.7173 82.8246 59.2257 81.6043 59.6303C79.5537 60.2354 79.2709 59.9742 79.1099 60.6721C79.0026 61.1374 79.0994 61.9927 79.3536 62.5904C79.8585 64.2259 81.4082 64.7303 84.0028 64.1035C87.6353 63.2262 91.729 59.7111 97.4577 52.5058ZM80.8773 56.6205L80.9059 56.2841C80.3298 57.0823 80.3012 57.4187 80.6627 57.5511C81.3606 57.712 81.3606 57.712 82.5594 56.7634C83.4719 55.9938 84.0264 54.6517 83.5361 54.4406C83.5361 54.4406 83.4323 54.4656 83.3285 54.4907C82.8096 54.616 81.7146 55.5396 80.8773 56.6205Z" fill="white"></path>
<path d="M73.5332 56.5265L73.6871 56.709C75.7698 55.3272 76.8077 55.0765 77.0333 56.0106C77.1085 56.3219 76.6898 56.8624 75.9598 57.4781C74.761 58.4267 72.7069 59.472 70.8639 60.027C67.9042 60.9616 66.1469 60.5073 64.6007 59.5627C63.9564 59.1691 63.3373 58.8794 63.1297 58.9295C62.6108 59.0548 59.5945 63.8474 56.9933 68.5398C55.7053 70.9379 54.4207 72.8957 54.1094 72.9709C53.798 73.0461 53.3328 72.9388 53.0751 72.7814C52.3019 72.3091 52.7667 69.2312 54.4123 64.2204C55.7931 59.9327 56.3691 59.1345 57.5038 59.7392C58.1229 60.029 58.148 60.1328 57.7224 61.5537C57.1929 62.9996 57.2967 62.9745 59.8086 59.7317C62.9216 55.7944 63.4155 55.5653 65.1623 57.3401C66.2933 58.385 66.9627 58.8824 69.4535 58.2807C70.9065 57.9298 72.1018 57.4214 73.5332 56.5265Z" fill="white"></path>
<path d="M58.0277 60.4924L57.5875 60.4889C57.7915 60.8789 57.3443 61.7559 55.9845 63.4024C51.4866 68.8825 48.6523 70.336 42.4467 72.3841C40.4211 73.093 39.6409 73.5011 38.3098 74.8113C34.8136 78.0722 28.8798 78.5169 31.4168 75.3778C32.3579 74.2717 34.1794 73.1727 36.4125 72.4136C38.023 71.805 38.388 71.4971 39.0965 70.3374C40.8282 67.5026 41.0318 64.7074 39.5788 65.0584C37.5031 65.5597 32.9265 71.1687 29.2232 77.6651C27.1229 81.2479 26.2354 82.1214 25.3585 81.6741C24.8431 81.3592 24.8251 80.375 25.3972 76.8318C26.0264 72.6156 28.1117 64.4231 30.0756 58.4566C31.6425 53.5747 35.8998 42.5508 36.6333 41.4949C37.2094 40.6967 38.5837 40.4746 38.9667 41.151C39.1457 41.4373 38.4017 43.8138 37.3713 46.3693C34.0942 54.6301 31.6259 62.1463 29.2724 71.5021L28.6035 74.19L31.144 70.6106C35.5953 64.4828 39.1632 61.9734 41.7689 63.2113C43.3938 64.0271 43.6912 65.7127 42.8147 68.4507C42.4427 69.639 42.2281 70.5696 42.3319 70.5445C42.6934 70.6769 46.5656 68.9727 47.7894 68.1279C50.1585 66.5671 52.3951 65.3678 54.4097 62.7942C56.5281 60.1955 57.5193 59.2971 58.0277 60.4924Z" fill="white"></path>
<path d="M146.73 70.1482L146.93 70.0998C147.102 70.3759 145.667 71.888 141.919 75.2298C134.095 82.3103 134.474 81.689 134.233 83.76C133.913 86.3799 132.195 91.9857 130.925 94.6229C128.741 99.176 124.758 103.74 121.648 105.338C120.043 106.15 119.843 106.198 118.594 106.288C116.171 106.344 114.962 104.411 115.783 101.67C116.604 98.9293 122.105 91.8802 128.98 84.817C130.592 83.1565 131.951 81.7688 132.027 81.6445C132.179 81.3959 132.171 76.1011 131.978 75.3003C131.881 74.8999 131.684 74.5237 131.484 74.5721C131.284 74.6204 129.845 76.5571 128.278 78.8423C123.982 85.1768 123.402 85.8465 121.549 86.506C120.172 86.9446 119.847 86.917 119.202 86.4374C117.662 85.3261 117.547 80.9046 118.976 77.1697C119.486 75.7751 119.942 75.0295 120.543 74.8844C120.843 74.8119 121.067 74.8636 121.316 75.0155C121.913 75.295 121.861 75.5193 121.195 77.587C120.35 80.2276 120.14 81.5496 120.299 83.524C120.365 84.6734 120.537 84.9495 120.938 84.8528C121.438 84.7319 124.316 80.8587 127.022 76.7094C127.781 75.4666 129.016 74.0029 129.82 73.385C131.177 72.4217 131.277 72.3976 132.299 72.6805C133.669 73.091 134.087 73.9435 134.191 76.5667C134.281 77.8162 134.422 78.8414 134.547 78.9173C134.671 78.9932 136.655 77.5604 139.599 74.8366C144.883 69.9586 146.163 69.1197 146.73 70.1482ZM128.377 94.6026L128.153 94.5509C129.271 92.1621 131.369 85.935 131.072 85.583C130.171 85.8006 121.046 96.2674 119.072 99.4985C117.706 101.735 117.216 103.655 117.834 104.459C118.428 105.163 120.433 104.255 122.445 102.497C124.609 100.492 127.183 97.1156 128.377 94.6026Z" fill="white"></path>
<path d="M120.898 76.6002L120.474 76.5968C120.671 76.973 120.239 77.8187 118.928 79.4067C114.59 84.6919 111.856 86.0937 105.871 88.0689C103.918 88.7527 103.166 89.1463 101.882 90.4098C98.5099 93.5548 92.7871 93.9836 95.2339 90.9562C96.1415 89.8895 97.8982 88.8295 100.052 88.0974C101.605 87.5104 101.957 87.2135 102.64 86.0951C104.311 83.3611 104.507 80.6653 103.106 81.0038C101.104 81.4873 96.6899 86.8968 93.1183 93.1621C91.0927 96.6175 90.2368 97.4599 89.3911 97.0285C88.894 96.7249 88.8766 95.7757 89.4284 92.3584C90.0352 88.2923 92.0464 80.3911 93.9405 74.6369C95.4516 69.9286 99.5574 59.2968 100.265 58.2784C100.82 57.5086 102.146 57.2944 102.515 57.9467C102.688 58.2228 101.97 60.5149 100.977 62.9795C97.8161 70.9464 95.4356 78.1953 93.1657 87.2183L92.5207 89.8106L94.9708 86.3586C99.2638 80.4487 102.705 78.0285 105.218 79.2224C106.785 80.0092 107.072 81.6348 106.226 84.2755C105.868 85.4215 105.661 86.319 105.761 86.2948C106.109 86.4225 109.844 84.7789 111.024 83.9641C113.309 82.4588 115.466 81.3022 117.409 78.8202C119.452 76.3139 120.408 75.4474 120.898 76.6002Z" fill="white"></path>
<path d="M301.543 29.7118L301.256 29.8908C302.602 30.0051 302.023 31.2435 298.57 35.5925C291.978 43.775 288.98 46.3666 285.637 46.6248C285.197 46.6213 284.37 46.3817 283.751 46.0919C282.745 45.5659 282.566 45.2796 281.989 42.8925C281.513 40.9206 281.473 39.3924 281.724 37.245C282.278 32.7175 282.278 32.7175 280.829 35.8135C278.668 40.5094 276.07 44.7617 274.556 46.2257C271.948 48.6133 269.099 48.6423 268.522 46.2552C267.895 43.6606 269.777 38.2632 272.021 36.1835C273.535 34.7195 274.909 34.4974 276.766 35.3668L278.263 36.1038L279.715 32.5676C281.114 29.264 282.992 24.3068 286.673 14.0811C288.051 10.2335 288.709 8.86627 289.435 8.69079C289.643 8.64065 289.876 8.6943 290.108 8.74795C291.064 9.06633 291.06 9.50655 290.134 12.037C286.349 22.2878 283.17 40.9597 284.806 43.6401C285.93 45.5654 289.419 43.1849 294.44 37.1392C299.721 30.8108 300.87 29.6546 301.543 29.7118ZM275.268 41.4405L275.397 41.5192C277.182 38.4518 277.157 38.348 276.438 37.643C275.718 36.9381 275.228 36.727 274.709 36.8523C274.501 36.9025 274.215 37.0815 273.929 37.2605C272.365 38.5169 270.19 44.9737 270.984 45.99C271.471 46.6413 273.221 44.7907 275.268 41.4405Z" fill="white"></path>
<path d="M272.315 37.3231L272.526 36.8328C272.705 37.1191 272.258 37.996 271.341 39.2058C269.037 42.3986 264.256 47.6175 260.896 50.0767C257.561 52.6398 255.02 53.0338 253.298 51.3627C252.296 50.3966 252.203 49.101 252.7 45.2464C252.893 43.7718 252.928 42.5549 252.799 42.4762C252.18 42.1864 247.822 46.4246 245.596 49.4885C243.37 52.5525 240.157 56.0746 239.43 56.2501C239.015 56.3504 238.342 56.2932 237.956 56.0571C237.466 55.846 237.236 55.3521 237.165 54.6006C237.028 52.217 239.447 44.4932 240.724 43.4158C241.089 43.1079 241.4 43.0327 241.916 43.3476C242.664 43.7161 242.689 43.8199 242.056 45.2909C241.158 47.485 239.67 52.2381 239.584 53.2474C239.502 53.8164 240.468 52.8142 242.822 49.8289C248.394 42.8813 251.808 40.1894 253.898 41.1125C255.111 41.5883 255.358 43.0664 254.894 46.1443C254.457 48.8859 254.726 50.908 255.503 50.9401C257.496 51.0078 262.399 46.748 268.41 39.8039C270.815 37.0263 271.674 36.4893 272.315 37.3231Z" fill="white"></path>
<path d="M239.593 45.8875L239.36 45.8339C241.006 44.0083 241.55 43.9868 241.826 45.1284C241.876 45.336 241.587 45.9552 241.036 46.8572C239.461 49.4343 236.244 53.3967 234.104 55.4514C230.165 59.149 227.645 60.0871 225.168 58.9279C223.801 58.2696 223.622 57.9833 223.246 56.4265L222.82 54.6621L220.78 57.1319C216.883 61.9176 213.759 63.9903 211.615 63.2999C208.645 62.3698 210.644 55.1865 215.028 51.0521C216.28 49.8709 217.529 49.1298 218.671 48.8541C220.124 48.5031 221.416 48.8501 222.339 49.9451L223.109 50.8576L223.946 49.7767C224.862 48.5668 225.253 48.3628 226.026 48.8351C226.541 49.1499 226.538 49.5902 226.005 51.4764C225.257 54.2931 225.293 56.2615 226.141 57.0452C226.682 57.4639 227.018 57.4924 228.239 57.0878C230.576 56.3037 233.106 54.045 236.952 49.0517C238.051 47.688 238.888 46.607 239.593 45.8875ZM219.37 55.3856L219.602 55.4393C221.563 53.0983 221.642 52.9695 221.08 52.0068C220.722 51.4342 220.26 50.8867 220.028 50.8331C219.899 50.7543 219.666 50.7007 219.459 50.7508C217.15 51.1985 212.62 57.4553 212.621 60.6406C212.635 62.065 213.233 61.8108 215.555 59.6022C216.521 58.5999 218.271 56.7494 219.37 55.3856Z" fill="white"></path>
<path d="M216.469 50.8094L216.68 50.3191C216.859 50.6054 216.412 51.4823 215.496 52.6921C213.191 55.8849 208.411 61.1038 205.05 63.563C201.715 66.1261 199.174 66.5202 197.452 64.8491C196.45 63.8829 196.357 62.5873 196.854 58.7327C197.047 57.2581 197.082 56.0413 196.954 55.9626C196.334 55.6727 191.976 59.9109 189.75 62.9748C187.525 66.0388 184.311 69.561 183.585 69.7365C183.17 69.8367 182.497 69.7796 182.11 69.5434C181.62 69.3323 181.391 68.8385 181.319 68.0869C181.183 65.7033 183.601 57.9795 184.878 56.9021C185.243 56.5942 185.555 56.519 186.07 56.8339C186.818 57.2024 186.843 57.3062 186.21 58.7773C185.312 60.9713 183.824 65.7244 183.738 66.7337C183.656 67.3028 184.622 66.3005 186.977 63.3153C192.548 56.3676 195.962 53.6757 198.052 54.5988C199.266 55.0746 199.513 56.5527 199.048 59.6307C198.612 62.3722 198.88 64.3943 199.657 64.4264C201.651 64.4941 206.553 60.2344 212.565 53.2903C214.969 50.5126 215.828 49.9756 216.469 50.8094Z" fill="white"></path>
<path d="M183.747 59.3758L183.515 59.3221C185.161 57.4966 185.705 57.4751 185.981 58.6167C186.031 58.8243 185.741 59.4435 185.19 60.3455C183.615 62.9226 180.399 66.885 178.259 68.9396C174.319 72.6373 171.799 73.5754 169.323 72.4162C167.955 71.7579 167.776 71.4716 167.4 69.9148L166.974 68.1504L164.934 70.6202C161.038 75.4059 157.914 77.4786 155.77 76.7882C152.799 75.8581 154.799 68.6748 159.182 64.5404C160.435 63.3592 161.684 62.6181 162.825 62.3424C164.278 61.9914 165.57 62.3384 166.494 63.4334L167.263 64.3459L168.101 63.2649C169.017 62.0551 169.407 61.8511 170.18 62.3234C170.695 62.6382 170.692 63.0784 170.159 64.9646C169.411 67.7814 169.447 69.7498 170.296 70.5335C170.836 70.9521 171.173 70.9807 172.393 70.5761C174.73 69.792 177.26 67.5333 181.107 62.54C182.205 61.1762 183.042 60.0953 183.747 59.3758ZM163.524 68.8739L163.757 68.9275C165.718 66.5866 165.796 66.4577 165.234 65.4951C164.876 64.9225 164.415 64.375 164.182 64.3213C164.053 64.2426 163.82 64.189 163.613 64.2391C161.304 64.6868 156.774 70.9436 156.775 74.1288C156.789 75.5533 157.387 75.2991 159.71 73.0905C160.676 72.0882 162.426 70.2376 163.524 68.8739Z" fill="white"></path>
<path d="M135.607 107.533C135.566 107.533 136.891 107.065 151.747 100.981C165.286 95.4363 190.89 84.6175 212.863 77.1365C234.836 69.6554 252.372 65.7668 268.02 63.566C283.668 61.3651 296.897 60.9699 303.559 61.0432C310.222 61.1165 309.918 61.6704 307.078 63.8097C304.238 65.9491 298.87 69.657 293.34 73.4773" stroke="white" stroke-width="1.67549" stroke-linecap="round"></path>
</svg>